<svg width="88" height="70" viewBox="0 0 88 70" fill="none" xmlns="http://www.w3.org/2000/svg">
<path d="M40.7169 68.5637C35.3749 71.8569 28.4908 68.0158 28.4889 61.7407C28.4849 52.3918 38.3749 43.1647 38.3708 33.8159C38.3679 25.5187 28.4698 17.0998 28.4669 8.8017C28.4729 5.87079 30.0679 3.16278 32.6279 1.73578C35.0419 0.391784 38.1289 0.254821 40.8259 1.91669C47.989 6.3327 55.3059 10.2687 62.469 14.6848C69.6919 19.1376 76.761 24.0698 83.9839 28.5226C84.1919 28.6518 87.7109 30.9218 87.7029 35.2197C87.698 37.7968 86.45 40.3708 83.959 41.9028C76.7849 46.3259 69.5278 51.5378 62.3528 55.9606C55.1128 60.4247 47.9568 64.0998 40.7169 68.5637Z" fill="url(#paint0_linear_607_26)"/>
<path d="M11.2819 65.932C17.95 61.8199 24.5419 58.4349 31.2098 54.3238C37.8179 50.2499 44.502 45.4498 51.1099 41.3759C53.4028 39.965 54.553 37.5939 54.5579 35.2208C54.5649 31.2628 51.324 29.172 51.1328 29.0529C44.48 24.952 37.9689 20.4091 31.3159 16.308C24.7189 12.2408 17.9799 8.61584 11.3829 4.54895C8.89893 3.01696 6.05591 3.14294 3.83289 4.38195C1.47388 5.69592 0.00488281 8.18982 -0.00012207 10.89C0.00292969 18.5319 12.4819 26.2689 12.4849 33.912C12.4889 42.5218 0.0158691 51.037 0.0198975 59.6468C0.0218506 65.4269 6.36292 68.965 11.2819 65.932ZM25.3729 39.202C25.3719 37.7269 27.5079 36.2699 27.507 34.796C27.507 33.4869 25.3699 32.162 25.3699 30.8539C25.3699 30.392 25.6219 29.965 26.0259 29.7399C26.4059 29.528 26.8929 29.506 27.3179 29.7679C28.4479 30.465 29.6019 31.0848 30.731 31.7819C31.8699 32.484 32.9849 33.2618 34.1239 33.964C34.1569 33.984 34.7109 34.3419 34.7098 35.0199C34.7089 35.4259 34.5129 35.8319 34.1199 36.0729C32.9889 36.7709 31.8439 37.5929 30.7129 38.2899C29.5709 38.994 28.4429 39.5738 27.3009 40.278C26.4589 40.797 25.3729 40.191 25.3729 39.202Z" fill="url(#paint1_linear_607_26)"/>
<defs>
<linearGradient id="paint0_linear_607_26" x1="87.7028" y1="35.2341" x2="28.467" y2="35.2341" gradientUnits="userSpaceOnUse">
<stop stop-color="#8E68B2"/>
<stop offset="1" stop-color="#6977D0"/>
</linearGradient>
<linearGradient id="paint1_linear_607_26" x1="46.2925" y1="35.9404" x2="11.0945" y2="35.9404" gradientUnits="userSpaceOnUse">
<stop stop-color="#8E68B2"/>
<stop offset="1" stop-color="#6977D0"/>
</linearGradient>
</defs>
</svg>
